<?xml version="1.0" encoding="utf-8"?>
<!-- Generator: Adobe Illustrator 17.0.0, SVG Export Plug-In . SVG Version: 6.00 Build 0)  -->
<!DOCTYPE svg PUBLIC "-//W3C//DTD SVG 1.1//EN" "http://www.w3.org/Graphics/SVG/1.1/DTD/svg11.dtd">
<svg version="1.1" id="Capa_1" xmlns="http://www.w3.org/2000/svg" xmlns:xlink="http://www.w3.org/1999/xlink" x="0px" y="0px"
	 width="40.912px" height="40.912px" viewBox="0 0 40.912 40.912" enable-background="new 0 0 40.912 40.912" xml:space="preserve">
<g>
	<path fill-rule="evenodd" clip-rule="evenodd" d="M38.025,12.612c-0.548-0.098-3.534-0.492-3.952-0.437l-1.915,13.36
		c0.508,0.069,2.014,0.043,2.612,0.019C34.887,25.361,37.93,13.392,38.025,12.612L38.025,12.612z M31.546,11.825
		c-0.672-0.04-1.365-0.157-2.028-0.241l-1.684-0.205c-0.431,0.013-0.111-0.044-0.265,0.075l-0.663,14.107l2.675-0.001L31.546,11.825
		L31.546,11.825z M21.672,25.524c0.305,0.08,2.323,0.07,2.682,0.015l0.661-14.499l-3.964-0.468L21.672,25.524L21.672,25.524z
		 M16.465,25.56l2.641,0.005l-0.755-15.29c-0.366-0.14,0.181,0.043-0.098-0.037l-3.744-0.433L16.465,25.56L16.465,25.56z
		 M11.336,25.521c0.355,0.104,2.074,0.053,2.543,0.035l-1.967-15.84c-0.071-0.274,0.006-0.099-0.106-0.227L9.177,9.15L11.336,25.521
		L11.336,25.521z M40.912,11.278v0.554c-0.183,0.294-0.932,3.556-1.089,4.201c-1.028,4.205-2.272,8.715-3.218,12.86
		c-0.153,0.665-0.353,1.423-0.53,2.087c-0.725,2.732-0.345,2.238-5.815,2.238H8.888c-0.908,0-1.705,0.139-2.218-0.48
		c-0.509-0.617-0.245-1.48,0.3-1.847c0.588-0.396,4.127-0.215,5.122-0.215c5.358,0,10.718,0,16.077,0
		c1.664,0,3.755,0.112,5.367-0.015c0.136-0.527,0.588-2.085,0.591-2.552H10.784c-1.295,0.002-1.689-0.228-1.883-1.462L6.172,9.397
		C5.948,7.953,5.527,4.828,5.264,3.623C4.345,3.345,3.292,3.092,2.349,2.88C0.338,2.426,0.568,2.523,0,1.535V0.953l0.098-0.131
		C0.106,0.808,0.115,0.79,0.124,0.778c0.035-0.059,0.06-0.114,0.095-0.167c0.07-0.108,0.127-0.183,0.204-0.254
		C0.628,0.167,0.801,0.155,1.01,0h0.577c0.075,0.057-0.011,0.017,0.144,0.086l0.47,0.135c1.105,0.27,3.838,0.89,4.591,1.157
		C7.688,1.694,7.685,2.52,7.848,3.586c0.143,0.933,0.353,1.965,0.443,2.887c2.72,0.221,5.605,0.709,8.333,1.004
		C22.161,8.078,27.77,8.842,33.33,9.478c1.754,0.201,4.617,0.499,6.304,0.757C40.627,10.387,40.657,10.906,40.912,11.278z"/>
	<path fill-rule="evenodd" clip-rule="evenodd" d="M13.17,40.913h-0.728c-0.306-0.168-2.271-0.49-2.193-2.681
		c0.114-3.156,4.813-3.216,5.063-0.132c0.099,1.226-0.591,2.243-1.649,2.622L13.17,40.913z"/>
	<path fill-rule="evenodd" clip-rule="evenodd" d="M29.665,40.913h-0.563c-0.398-0.215-1.053-0.223-1.578-0.859
		c-1.519-1.839-0.2-4.255,1.886-4.253c2.765,0.002,3.422,3.686,1.183,4.791C30.339,40.716,29.912,40.788,29.665,40.913z"/>
</g>
</svg>
